{"title":"X-Men.Days.of.Future.Past.2014.BRRip.480p.THE.ROGUE.CUT-VYTO","uid":12212038,"size":586544715,"categoryP":"video","categoryS":"movies","magnet":"?xt=urn:btih:1a1419dcdac6c5afe48be4dc1bcf22cbcd124216&amp;dn=X-Men.Days.of.Future.Past.2014.BRRip.480p.THE.ROGUE.CUT-VYTO&amp;tr=udp%3A%2F%2Ftracker.openbittorrent.com%3A80&amp;tr=udp%3A%2F%2Fopen.demonii.com%3A1337&amp;tr=udp%3A%2F%2Ftracker.coppersurfer.tk%3A6969&amp;tr=udp%3A%2F%2Fexodus.desync.com%3A6969","seeders":15,"leechers":6,"uploader":"ValidusVyto","files":7,"time":1439119443,"description":"____    ____ ____    ____ .___________.  ______   \n     /   /      /   / |           | /  __    \n    /   /      /   /  `---|  |----`|  |  |  | \n        /     _    _/       |  |     |  |  |  | \n       /        |  |         |  |     |  `--'  | \n    __/         |__|         |__|      ______/  \n                                                  \nPresenting Small Encodes with quality for years!\n                                                                                                   \n                                                                                                   \n\nX-Men.Days.of.Future.Past.2014.BRRip.480p.THE.ROGUE.CUT.x264-VYTO\n\n\nGenre: Action, Adventure, Sci-Fi &lt;a href=&quot;\nhttp://www.imdb.com/title/tt1877832/&quot; rel=&quot;nofollow&quot; target=&quot;_NEW&quot;&gt;\nhttp://www.imdb.com/title/tt1877832/&lt;/a&gt;\n\n\nGeneral\nFormat                         : MPEG-4\nFile size                      : 552 MiB\nDuration                       : 2h 28mn\nOverall bit rate               : 519 Kbps\n\nVideo\nFormat                         : AVC\nDuration                       : 2h 28mn\nBit rate                       : 484 Kbps\nWidth                          : 720 pixels\nHeight                         : 304 pixels\nDisplay aspect ratio           : 2.35:1\nFrame rate mode                : Constant\nFrame rate                     : 23.976 fps\nBit depth                      : 8 bits\nStream size                    : 515 MiB (93%)\nWriting library                : x264 core 146 r2538\n\nAudio\nFormat                         : AAC\nBit rate mode                  : Variable\nBit rate                       : 31.9 Kbps\nChannel(s)                     : 2 channels\nChannel positions              : Front: L R\nSampling rate                  : 48.0 KHz\nStream size                    : 34.0 MiB (6%)\nLanguage                       : English\n\nScreenshots:\n &lt;a href=&quot;\nhttp://ititli.com/jq&quot; rel=&quot;nofollow&quot; target=&quot;_NEW&quot;&gt;\nhttp://ititli.com/jq&lt;/a&gt; &lt;a href=&quot;\nhttp://ititli.com/jr&quot; rel=&quot;nofollow&quot; target=&quot;_NEW&quot;&gt;\nhttp://ititli.com/jr&lt;/a&gt; &lt;a href=&quot;\nhttp://ititli.com/j1&quot; rel=&quot;nofollow&quot; target=&quot;_NEW&quot;&gt;\nhttp://ititli.com/j1&lt;/a&gt; &lt;a href=&quot;\nhttp://ititli.com/jT&quot; rel=&quot;nofollow&quot; target=&quot;_NEW&quot;&gt;\nhttp://ititli.com/jT&lt;/a&gt; &lt;a href=&quot;\nhttp://ititli.com/jW&quot; rel=&quot;nofollow&quot; target=&quot;_NEW&quot;&gt;\nhttp://ititli.com/jW&lt;/a&gt; &lt;a href=&quot;\nhttp://ititli.com/jg&quot; rel=&quot;nofollow&quot; target=&quot;_NEW&quot;&gt;\nhttp://ititli.com/jg&lt;/a&gt; &lt;a href=&quot;\nhttp://ititli.com/jn&quot; rel=&quot;nofollow&quot; target=&quot;_NEW&quot;&gt;\nhttp://ititli.com/jn&lt;/a&gt; &lt;a href=&quot;\nhttp://ititli.com/jw&quot; rel=&quot;nofollow&quot; target=&quot;_NEW&quot;&gt;\nhttp://ititli.com/jw&lt;/a&gt; &lt;a href=&quot;\nhttp://ititli.com/j2&quot; rel=&quot;nofollow&quot; target=&quot;_NEW&quot;&gt;\nhttp://ititli.com/j2&lt;/a&gt; &lt;a href=&quot;\nhttp://ititli.com/j6&quot; rel=&quot;nofollow&quot; target=&quot;_NEW&quot;&gt;\nhttp://ititli.com/j6&lt;/a&gt; &lt;a href=&quot;\nhttp://ititli.com/j8&quot; rel=&quot;nofollow&quot; target=&quot;_NEW&quot;&gt;\nhttp://ititli.com/j8&lt;/a&gt; &lt;a href=&quot;\nhttp://ititli.com/je&quot; rel=&quot;nofollow&quot; target=&quot;_NEW&quot;&gt;\nhttp://ititli.com/je&lt;/a&gt;\n\n----------------------------------------------------------------------------------------------------\n\n\nEncoder Notes: Looking For Early Access To Anything You Can Provide DVDScr, R5, DVDR, BluRay, Direct\nAudio, Music Releases and Seedboxes. If You Got anything to offer please contact us.\n\nSupport us by donating BC - 1FgwdzPsd1y25Gea8wP1qni35uGCtmkRCD","torrent":{"xt":"urn:btih:1a1419dcdac6c5afe48be4dc1bcf22cbcd124216","amp;dn":"X-Men.Days.of.Future.Past.2014.BRRip.480p.THE.ROGUE.CUT-VYTO","amp;tr":["udp%3A%2F%2Ftracker.openbittorrent.com%3A80","udp%3A%2F%2Fopen.demonii.com%3A1337","udp%3A%2F%2Ftracker.coppersurfer.tk%3A6969","udp%3A%2F%2Fexodus.desync.com%3A6969"],"infoHash":"1a1419dcdac6c5afe48be4dc1bcf22cbcd124216","infoHashBuffer":{"type":"Buffer","data":[26,20,25,220,218,198,197,175,228,139,228,220,27,207,34,203,205,18,66,22]},"announce":[],"urlList":[]}}